<svg width="31" height="31" viewBox="0 0 31 31" fill="none" xmlns="http://www.w3.org/2000/svg">
<g style="mix-blend-mode:color-dodge">
<path d="M15.4678 3.51331H15.4814C22.0554 3.51351 27.371 8.73181 27.3711 15.0797C27.3711 17.5242 26.5665 19.9157 25.083 21.8942L24.6455 22.4781L25.0674 23.0729L27.3232 26.2526L27.3271 26.2565C27.3652 26.3095 27.3789 26.3986 27.335 26.4899C27.274 26.5895 27.1711 26.6461 27.0693 26.6461H15.4678C8.89372 26.6459 3.57812 21.4277 3.57812 15.0797C3.57825 8.73181 8.8938 3.51351 15.4678 3.51331ZM15.4678 4.02698C9.25534 4.02718 4.15637 8.96197 4.15625 15.0797C4.15625 21.1976 9.25526 26.1332 15.4678 26.1334H26.5469L25.4219 24.5533L25.1426 24.1608H25.1689L24.0264 22.5758C23.9588 22.4821 23.9733 22.3657 24.0342 22.2985L24.04 22.2916L24.0469 22.2838C25.7981 20.2734 26.7803 17.7295 26.7803 15.0797C26.7801 8.96185 21.6804 4.02698 15.4678 4.02698Z" stroke="black" stroke-width="2"/>
</g>
<g style="mix-blend-mode:color-dodge">
<path d="M20.7607 10.5031C19.8262 9.48555 18.611 8.76792 17.2687 8.44098C15.9264 8.11404 14.5173 8.19247 13.2196 8.66637C11.9219 9.14027 10.7938 9.98834 9.97812 11.1033C9.16239 12.2184 8.69562 13.5502 8.63683 14.9305C8.57804 16.3108 8.92987 17.6775 9.64784 18.8578C10.3658 20.0382 11.4176 20.9791 12.6704 21.5616C13.9231 22.1441 15.3204 22.3421 16.6857 22.1305C18.0509 21.9189 19.3227 21.3072 20.3403 20.3727L18.5846 18.4608C17.9451 19.048 17.1459 19.4323 16.288 19.5653C15.4301 19.6983 14.5521 19.5739 13.7649 19.2078C12.9777 18.8418 12.3167 18.2505 11.8656 17.5088C11.4144 16.7671 11.1933 15.9083 11.2303 15.041C11.2672 14.1736 11.5605 13.3367 12.0731 12.636C12.5857 11.9354 13.2946 11.4025 14.11 11.1047C14.9255 10.8069 15.8109 10.7576 16.6544 10.963C17.4979 11.1685 18.2615 11.6194 18.8487 12.2589L20.7607 10.5031Z" fill="black"/>
</g>
</svg>
